<svg xmlns="http://www.w3.org/2000/svg" viewBox="0 0 0 0 360 120" fill="none" role="img" aria-label="float"><g transform="rotate(-50 60 60)"><path d="M51 99 A40 40 0 1 1 69 99" stroke="#135450" stroke-width="13" stroke-linecap="round"/></g><circle cx="60" cy="60" r="17" fill="#135450"/><path d="M136.406 86.0V50.224000000000004H128.494V39.044000000000004H136.406V38.356Q136.406 32.766000000000005 138.599 28.896000000000004Q140.792 25.026000000000003 144.92000000000002 22.962000000000007Q149.048 20.89800000000001 154.896 20.89800000000001Q156.014 20.89800000000001 157.304 21.027000000000008Q158.594 21.156000000000006 159.454 21.328000000000003V32.336000000000006Q158.594 32.164 157.949 32.121Q157.304 32.078 156.61599999999999 32.078Q153.004 32.078 151.15499999999997 33.669000000000004Q149.30599999999998 35.260000000000005 149.30599999999998 38.356V39.044000000000004H159.368V50.224000000000004H149.30599999999998V86.0Z M162.98999999999998 86.0V20.89800000000001H175.89V86.0Z M205.656 87.032Q198.69 87.032 192.971 83.85Q187.252 80.668 183.85500000000002 75.12100000000001Q180.458 69.574 180.458 62.522000000000006Q180.458 55.384 183.85500000000002 49.88Q187.252 44.376000000000005 192.971 41.194Q198.69 38.012 205.656 38.012Q212.622 38.012 218.298 41.194Q223.974 44.376000000000005 227.37099999999998 49.88Q230.768 55.384 230.768 62.522000000000006Q230.768 69.574 227.37099999999998 75.12100000000001Q223.974 80.668 218.298 83.85Q212.622 87.032 205.656 87.032ZM205.656 75.422Q209.18200000000002 75.422 211.805 73.788Q214.428 72.154 215.933 69.22999999999999Q217.438 66.306 217.438 62.522000000000006Q217.438 58.738 215.933 55.857Q214.428 52.976 211.805 51.299Q209.18200000000002 49.622 205.656 49.622Q202.13 49.622 199.464 51.299Q196.798 52.976 195.293 55.857Q193.788 58.738 193.788 62.522000000000006Q193.788 66.306 195.293 69.22999999999999Q196.798 72.154 199.464 73.788Q202.13 75.422 205.656 75.422Z M249.87 87.032Q244.796 87.032 241.098 85.398Q237.4 83.764 235.422 80.711Q233.444 77.658 233.444 73.444Q233.444 69.488 235.25 66.435Q237.05599999999998 63.382000000000005 240.79699999999997 61.318000000000005Q244.53799999999998 59.254000000000005 250.128 58.394000000000005L264.49 56.072V65.532L252.45 67.682Q249.69799999999998 68.19800000000001 248.236 69.44500000000001Q246.774 70.69200000000001 246.774 73.014Q246.774 75.164 248.40800000000002 76.368Q250.042 77.572 252.45 77.572Q255.632 77.572 258.03999999999996 76.196Q260.448 74.82 261.78099999999995 72.455Q263.114 70.09 263.114 67.25200000000001V55.040000000000006Q263.114 52.374 261.00699999999995 50.568Q258.9 48.762 255.28799999999998 48.762Q251.84799999999998 48.762 249.225 50.653999999999996Q246.602 52.546 245.398 55.642L235.078 50.74Q236.454 46.784000000000006 239.464 43.946000000000005Q242.474 41.108000000000004 246.688 39.56Q250.902 38.012 255.89 38.012Q261.824 38.012 266.382 40.162000000000006Q270.94 42.312000000000005 273.477 46.139Q276.014 49.966 276.014 55.040000000000006V86.0H263.974V78.432L266.89799999999997 77.916Q264.834 81.012 262.34000000000003 83.033Q259.846 85.054 256.75 86.043Q253.654 87.032 249.87 87.032Z M304.232 86.516Q295.718 86.516 291.031 81.91499999999999Q286.344 77.314 286.344 69.05799999999999V50.224000000000004H278.432V39.044000000000004H278.862Q282.474 39.044000000000004 284.409 37.238Q286.344 35.432 286.344 31.820000000000007V28.380000000000003H299.244V39.044000000000004H310.252V50.224000000000004H299.244V68.19800000000001Q299.244 70.606 300.10400000000004 72.197Q300.964 73.788 302.77 74.562Q304.576 75.336 307.242 75.336Q307.844 75.336 308.618 75.25Q309.392 75.164 310.252 75.078V86.0Q308.962 86.172 307.328 86.344Q305.694 86.516 304.232 86.516Z" fill="#135450"/></svg>